# xmcd
#
# Track frame offsets: 
#        150
#        15319
#        29153
#        53218
#        71359
#        85305
#        97014
#        116796
#        133454
#        143589
#        162756
#        184359
#        203560
#        219773
#
# Disc length: 3132 seconds
#
# Revision: 0
# Processed by: cddbd v1.5.2PL0 Copyright (c) Steve Scherf et al.
# Submitted via: ExactAudioCopy v1.3
#
DISCID=c70c3a0e
DTITLE=Andy Lindquist - Just Keep Driving
DYEAR=2017
DGENRE=Delta Blues
TTITLE0=Just Keep Driving
TTITLE1=Come Hell Or High Water
TTITLE2=Spot Of Whiskey
TTITLE3=Count Your Blessings
TTITLE4=I Ain't Afraid To Admit I Get The Blues
TTITLE5=Sham Slam
TTITLE6=Blues On Top Of Blues
TTITLE7=Blues And Happiness
TTITLE8=As Sure As There's Mud In The Mississippi
TTITLE9=It Ain't Right
TTITLE10=Mean Old Woman
TTITLE11=Good Luck's In The Shadows
TTITLE12=Breathing, Walking, Singing And Talking
TTITLE13=If She Ain't Coming Back At All
EXTD=
EXTT0=
EXTT1=
EXTT2=
EXTT3=
EXTT4=
EXTT5=
EXTT6=
EXTT7=
EXTT8=
EXTT9=
EXTT10=
EXTT11=
EXTT12=
EXTT13=
PLAYORDER=
